<?xml version="1.0" encoding="utf-8"?>
<!-- Generator: Adobe Illustrator 15.0.0, SVG Export Plug-In . SVG Version: 6.00 Build 0)  -->
<!DOCTYPE svg PUBLIC "-//W3C//DTD SVG 1.1//EN" "http://www.w3.org/Graphics/SVG/1.1/DTD/svg11.dtd">
<svg version="1.1" id="Layer_1" xmlns="http://www.w3.org/2000/svg" xmlns:xlink="http://www.w3.org/1999/xlink" x="0px" y="0px"
	 width="180.613px" height="179.922px" viewBox="0 0 180.613 179.922" enable-background="new 0 0 180.613 179.922"
	 xml:space="preserve">
<g id="Layer_1_1_">
	
		<linearGradient id="SVGID_1_" gradientUnits="userSpaceOnUse" x1="253.9148" y1="592.0303" x2="253.9148" y2="592.0303" gradientTransform="matrix(1 0 0 1 108 -611.0781)">
		<stop  offset="0" style="stop-color:#414042"/>
		<stop  offset="0.3129" style="stop-color:#58595B"/>
		<stop  offset="1" style="stop-color:#231F20"/>
	</linearGradient>
	<path fill="url(#SVGID_1_)" d="M361.915-19.048"/>
	
		<linearGradient id="SVGID_2_" gradientUnits="userSpaceOnUse" x1="-63.5071" y1="598.4863" x2="22.4922" y2="791.9849" gradientTransform="matrix(1 0 0 1 108 -611.0781)">
		<stop  offset="0" style="stop-color:#A7A9AC"/>
		<stop  offset="1" style="stop-color:#414042"/>
	</linearGradient>
	<polygon opacity="0.1" fill="url(#SVGID_2_)" points="133.21,179.999 180.322,105.641 180.322,0 44.71,0 45.031,0.322 0,74.683 
		0,180.322 133.533,180.322 	"/>
	<g>
		<g>
			
				<linearGradient id="SVGID_3_" gradientUnits="userSpaceOnUse" x1="-21.9402" y1="652.6221" x2="-9.6632" y2="740.6067" gradientTransform="matrix(1 0 0 1 108 -611.0781)">
				<stop  offset="0" style="stop-color:#088BB7"/>
				<stop  offset="0.5153" style="stop-color:#6BB3E4"/>
				<stop  offset="1" style="stop-color:#046188"/>
			</linearGradient>
			<path fill="url(#SVGID_3_)" d="M140.262,44.556H99.246H42.372c-0.556,0-1.9,0.7-1.9,2.047v58.152v0.433v7.276h0.005
				c0.05,0.236,0.469,2.019,1.985,2.019h38.731c-0.021,1.66-0.603,7.968-1.076,9.656c-0.037,0.133-0.091,0.264-0.154,0.393
				c-0.687,1.375-2.772,2.455-3.559,2.881c-0.004,0.002-0.007,0.004-0.011,0.006c-0.021,0.014-0.04,0.021-0.062,0.033
				c-0.008,0.004-0.016,0.008-0.021,0.012c-0.019,0.012-0.033,0.021-0.049,0.027c-0.008,0.004-0.015,0.008-0.021,0.012
				c-0.021,0.014-0.04,0.021-0.056,0.031c-0.539,0.322-0.646,1.131,1.131,1.186c0,0,1.174,0,3.034,0c5.656,0,17.673,0,22.359,0
				c0.673,0,1.196,0,1.526,0c3.393,0,2.478-0.859,2.478-0.859s-2.746-1.885-3.821-2.801c-0.004-0.006-0.009-0.008-0.012-0.012l0,0
				c-1.011-0.914-1.496-9.591-1.548-10.562h39.019c0.552,0,1.883-0.689,1.898-2.02h0.001v-7.277v-0.432V46.603
				C142.254,46.603,141.89,44.556,140.262,44.556z"/>
			
				<linearGradient id="SVGID_4_" gradientUnits="userSpaceOnUse" x1="-16.6375" y1="659.5107" x2="-16.6375" y2="712.8333" gradientTransform="matrix(1 0 0 1 108 -611.0781)">
				<stop  offset="0" style="stop-color:#000000"/>
				<stop  offset="1" style="stop-color:#7D7D7D"/>
			</linearGradient>
			<rect x="44.624" y="48.863" fill="url(#SVGID_4_)" width="93.478" height="52.841"/>
		</g>
		<g>
			
				<linearGradient id="SVGID_5_" gradientUnits="userSpaceOnUse" x1="11.3347" y1="703.9883" x2="20.9923" y2="747.0533" gradientTransform="matrix(1 0 0 1 108 -611.0781)">
				<stop  offset="0" style="stop-color:#088BB7"/>
				<stop  offset="0.5153" style="stop-color:#6BB3E4"/>
				<stop  offset="1" style="stop-color:#046188"/>
			</linearGradient>
			<path fill="url(#SVGID_5_)" d="M134.465,129.968h-0.194v-2.778V97.854c0-1.604-1.279-2.903-2.857-2.903h-7.89h-2.641v-0.2h-0.239
				v0.199h-3.517c-1.579,0-2.855,1.301-2.855,2.904v32.113h-0.199v0.229h0.199v1.795c0,1.604,1.276,2.904,2.855,2.904h14.284
				c1.578,0,2.857-1.303,2.857-2.904v-1.795h0.194L134.465,129.968L134.465,129.968z"/>
		</g>
		<g>
			
				<linearGradient id="SVGID_6_" gradientUnits="userSpaceOnUse" x1="16.2668" y1="702.5156" x2="16.2668" y2="742.9775" gradientTransform="matrix(1 0 0 1 108 -611.0781)">
				<stop  offset="0" style="stop-color:#000000"/>
				<stop  offset="1" style="stop-color:#7D7D7D"/>
			</linearGradient>
			<rect x="115.546" y="99.171" fill="url(#SVGID_6_)" width="17.443" height="26.263"/>
		</g>
	</g>
	<g>
		
			<image overflow="visible" opacity="0.75" enable-background="new    " width="483" height="408" xlink:href="9996E27C.png"  transform="matrix(0.238 0 0 0.2382 35.4294 39.5156)">
		</image>
		<g>
			
				<linearGradient id="SVGID_7_" gradientUnits="userSpaceOnUse" x1="-21.9402" y1="652.6221" x2="-9.6632" y2="740.6067" gradientTransform="matrix(1 0 0 1 108 -611.0781)">
				<stop  offset="0" style="stop-color:#A7A9AC"/>
				<stop  offset="1" style="stop-color:#414042"/>
			</linearGradient>
			<path fill="url(#SVGID_7_)" d="M140.262,44.556H99.246H42.372c-0.556,0-1.9,0.7-1.9,2.047v58.152v0.433v7.276h0.005
				c0.05,0.236,0.469,2.019,1.985,2.019h38.731c-0.021,1.66-0.603,7.968-1.076,9.656c-0.037,0.133-0.091,0.264-0.154,0.393
				c-0.687,1.375-2.772,2.455-3.559,2.881c-0.004,0.002-0.007,0.004-0.011,0.006c-0.021,0.014-0.04,0.021-0.062,0.033
				c-0.008,0.004-0.016,0.008-0.021,0.012c-0.019,0.012-0.033,0.021-0.049,0.027c-0.008,0.004-0.015,0.008-0.021,0.012
				c-0.021,0.014-0.04,0.021-0.056,0.031c-0.539,0.322-0.646,1.131,1.131,1.186c0,0,1.174,0,3.034,0c5.656,0,17.673,0,22.359,0
				c0.673,0,1.196,0,1.526,0c3.393,0,2.478-0.859,2.478-0.859s-2.746-1.885-3.821-2.801c-0.004-0.006-0.009-0.008-0.012-0.012l0,0
				c-1.011-0.914-1.496-9.591-1.548-10.562h39.019c0.552,0,1.883-0.689,1.898-2.02h0.001v-7.277v-0.432V46.603
				C142.254,46.603,141.89,44.556,140.262,44.556z"/>
		</g>
	</g>
	<rect x="44.624" y="48.863" fill="#FFFFFF" width="93.478" height="58.341"/>
	<g>
		
			<image overflow="visible" opacity="0.75" enable-background="new    " width="150" height="233" xlink:href="9996E27D.png"  transform="matrix(0.2368 0 0 0.2369 108.03 88.7109)">
		</image>
		<g>
			
				<linearGradient id="SVGID_8_" gradientUnits="userSpaceOnUse" x1="11.3347" y1="703.9883" x2="20.9923" y2="747.0533" gradientTransform="matrix(1 0 0 1 108 -611.0781)">
				<stop  offset="0" style="stop-color:#A7A9AC"/>
				<stop  offset="1" style="stop-color:#414042"/>
			</linearGradient>
			<path fill="url(#SVGID_8_)" d="M134.465,129.968h-0.194v-2.778V97.854c0-1.604-1.279-2.903-2.857-2.903h-7.89h-2.641v-0.2h-0.239
				v0.199h-3.517c-1.579,0-2.855,1.301-2.855,2.904v32.113h-0.199v0.229h0.199v1.795c0,1.604,1.276,2.904,2.855,2.904h14.284
				c1.578,0,2.857-1.303,2.857-2.904v-1.795h0.194L134.465,129.968L134.465,129.968z"/>
		</g>
	</g>
	<g>
		<rect x="115.546" y="99.171" fill="#FFFFFF" width="17.443" height="26.263"/>
	</g>
</g>
</svg>
