<?xml version="1.0" encoding="utf-8"?>
<!-- Generator: Adobe Illustrator 15.0.0, SVG Export Plug-In . SVG Version: 6.00 Build 0)  -->
<!DOCTYPE svg PUBLIC "-//W3C//DTD SVG 1.1//EN" "http://www.w3.org/Graphics/SVG/1.1/DTD/svg11.dtd">
<svg version="1.1" id="Layer_1" xmlns="http://www.w3.org/2000/svg" xmlns:xlink="http://www.w3.org/1999/xlink" x="0px" y="0px"
	 width="180.613px" height="179.922px" viewBox="0 0 180.613 179.922" enable-background="new 0 0 180.613 179.922"
	 xml:space="preserve">
<g id="Layer_1_1_">
	
		<linearGradient id="SVGID_1_" gradientUnits="userSpaceOnUse" x1="-63.2151" y1="598.4873" x2="22.7834" y2="791.9839" gradientTransform="matrix(1 0 0 1 108 -611.0781)">
		<stop  offset="0" style="stop-color:#A7A9AC"/>
		<stop  offset="1" style="stop-color:#414042"/>
	</linearGradient>
	<polygon opacity="0.1" fill="url(#SVGID_1_)" points="133.502,179.999 180.613,105.641 180.613,0 45.001,0 45.323,0.322 
		0.291,74.683 0.291,180.322 133.824,180.322 	"/>
	
		<linearGradient id="SVGID_2_" gradientUnits="userSpaceOnUse" x1="-64.7996" y1="647.3965" x2="-37.3002" y2="761.8938" gradientTransform="matrix(1 0 0 1 108 -611.0781)">
		<stop  offset="0" style="stop-color:#A7A9AC"/>
		<stop  offset="1" style="stop-color:#414042"/>
	</linearGradient>
	<path fill="url(#SVGID_2_)" d="M65.458,55.564v64.866H45.768V55.564H65.458 M70.091,50.931h-4.633H45.768h-4.635v4.633v64.866
		v4.633h4.635h19.689h4.633v-4.633V55.564V50.931L70.091,50.931z"/>
	
		<linearGradient id="SVGID_3_" gradientUnits="userSpaceOnUse" x1="-43.1233" y1="642.1895" x2="-15.6243" y2="756.6855" gradientTransform="matrix(1 0 0 1 108 -611.0781)">
		<stop  offset="0" style="stop-color:#A7A9AC"/>
		<stop  offset="1" style="stop-color:#414042"/>
	</linearGradient>
	<path fill="url(#SVGID_3_)" d="M88.754,57.11v64.865H69.065V57.11H88.754 M93.388,52.477h-4.635H69.065h-4.633v4.633v64.865v4.633
		h4.633h19.688h4.635v-4.633V57.11V52.477L93.388,52.477z"/>
	
		<linearGradient id="SVGID_4_" gradientUnits="userSpaceOnUse" x1="0.573" y1="631.6963" x2="28.0728" y2="746.1951" gradientTransform="matrix(1 0 0 1 108 -611.0781)">
		<stop  offset="0" style="stop-color:#A7A9AC"/>
		<stop  offset="1" style="stop-color:#414042"/>
	</linearGradient>
	<path fill="url(#SVGID_4_)" d="M135.344,58.655v64.866h-19.69V58.655H135.344 M139.976,54.022h-4.634h-19.69h-4.633v4.633v64.866
		v4.633h4.633h19.69h4.634v-4.633V58.655V54.022L139.976,54.022z"/>
	
		<linearGradient id="SVGID_5_" gradientUnits="userSpaceOnUse" x1="-20.3987" y1="636.7295" x2="7.1017" y2="751.2313" gradientTransform="matrix(1 0 0 1 108 -611.0781)">
		<stop  offset="0" style="stop-color:#A7A9AC"/>
		<stop  offset="1" style="stop-color:#414042"/>
	</linearGradient>
	<path fill="url(#SVGID_5_)" d="M112.047,54.018v64.866H92.359V54.018H112.047 M116.681,49.385h-4.636H92.359h-4.633v4.633v64.866
		v4.634h4.633h19.688h4.636v-4.634V54.018L116.681,49.385L116.681,49.385z"/>
	<g>
		
			<image overflow="visible" opacity="0.75" enable-background="new    " width="147" height="341" xlink:href="EF2A64A9.png"  transform="matrix(0.2236 0 0 0.2288 40.7263 50.5244)">
		</image>
		<g>
			<rect x="45.768" y="55.564" fill="#FFFFFF" width="19.689" height="64.866"/>
		</g>
	</g>
	<g>
		
			<image overflow="visible" opacity="0.75" enable-background="new    " width="147" height="341" xlink:href="EF2A64AB.png"  transform="matrix(0.2236 0 0 0.2288 64.0242 52.0703)">
		</image>
		<g>
			<rect x="69.064" y="57.11" fill="#FFFFFF" width="19.688" height="64.865"/>
		</g>
	</g>
	<g>
		
			<image overflow="visible" opacity="0.75" enable-background="new    " width="147" height="341" xlink:href="EF2A64AE.png"  transform="matrix(0.2236 0 0 0.2288 110.6111 53.6152)">
		</image>
		<g>
			<rect x="115.652" y="58.655" fill="#FFFFFF" width="19.688" height="64.866"/>
		</g>
	</g>
	<g>
		
			<image overflow="visible" opacity="0.75" enable-background="new    " width="143" height="331" xlink:href="EF2A64AF.png"  transform="matrix(0.23 0 0 0.2357 87.3191 48.9785)">
		</image>
		<g>
			<rect x="92.357" y="54.018" fill="#FFFFFF" width="19.688" height="64.866"/>
		</g>
	</g>
</g>
</svg>
