<?xml version="1.0" encoding="utf-8"?>
<!-- Generator: Adobe Illustrator 15.0.0, SVG Export Plug-In . SVG Version: 6.00 Build 0)  -->
<!DOCTYPE svg PUBLIC "-//W3C//DTD SVG 1.1//EN" "http://www.w3.org/Graphics/SVG/1.1/DTD/svg11.dtd">
<svg version="1.1" id="Layer_1" xmlns="http://www.w3.org/2000/svg" xmlns:xlink="http://www.w3.org/1999/xlink" x="0px" y="0px"
	 width="180.613px" height="179.922px" viewBox="0 0 180.613 179.922" enable-background="new 0 0 180.613 179.922"
	 xml:space="preserve">
<g id="Layer_1_1_">
	
		<linearGradient id="SVGID_1_" gradientUnits="userSpaceOnUse" x1="-63.5076" y1="598.085" x2="22.4918" y2="791.5834" gradientTransform="matrix(1 0 0 1 108 -611.0781)">
		<stop  offset="0" style="stop-color:#A7A9AC"/>
		<stop  offset="1" style="stop-color:#414042"/>
	</linearGradient>
	<polygon opacity="0.1" fill="url(#SVGID_1_)" points="133.21,179.6 180.322,105.239 180.322,-0.4 44.71,-0.4 45.031,-0.079 
		0,74.282 0,179.922 133.533,179.922 	"/>
	<g>
		<g>
			
				<linearGradient id="SVGID_2_" gradientUnits="userSpaceOnUse" x1="-55.0466" y1="656.4121" x2="-55.0466" y2="739.7913" gradientTransform="matrix(1 0 0 1 108 -611.0781)">
				<stop  offset="0" style="stop-color:#A7A9AC"/>
				<stop  offset="1" style="stop-color:#414042"/>
			</linearGradient>
			<path fill="url(#SVGID_2_)" d="M76.279,116.005L29.628,94.377v-12.48l46.651-21.628v18.289l-21.931,9.58l21.931,9.58V116.005z
				 M38.628,88.629l0.158,0.074v-1.131l-0.158,0.074V88.629z"/>
		</g>
		<g>
			
				<linearGradient id="SVGID_3_" gradientUnits="userSpaceOnUse" x1="-18.1794" y1="656.4121" x2="-18.1794" y2="739.7883" gradientTransform="matrix(1 0 0 1 108 -611.0781)">
				<stop  offset="0" style="stop-color:#A7A9AC"/>
				<stop  offset="1" style="stop-color:#414042"/>
			</linearGradient>
			<polygon fill="url(#SVGID_3_)" points="88.761,116.512 71.472,116.512 90.88,50.761 108.17,50.761 			"/>
		</g>
		<g>
			
				<linearGradient id="SVGID_4_" gradientUnits="userSpaceOnUse" x1="17.4348" y1="656.4121" x2="17.4348" y2="739.7913" gradientTransform="matrix(1 0 0 1 108 -611.0781)">
				<stop  offset="0" style="stop-color:#A7A9AC"/>
				<stop  offset="1" style="stop-color:#414042"/>
			</linearGradient>
			<polygon fill="url(#SVGID_4_)" points="102.109,115.966 102.109,97.691 124.462,88.137 102.109,78.583 102.109,60.309 
				148.761,81.646 148.761,94.628 			"/>
		</g>
	</g>
	<g>
		
			<image overflow="visible" opacity="0.75" enable-background="new    " width="517" height="296" xlink:href="DF30A744.png"  transform="matrix(0.2381 0 0 0.2359 29.0876 50.2207)">
		</image>
		<g>
			<g>
				<path fill="#FFFFFF" d="M34.128,84.771l37.651-17.456v8.297L43.286,88.059v0.156l28.493,12.446v8.297L34.128,91.503V84.771z"/>
				<path fill="#FFFFFF" d="M77.492,112.012l16.751-56.751h7.906l-16.752,56.751H77.492z"/>
				<path fill="#FFFFFF" d="M144.261,91.738l-37.651,17.221v-8.297l29.119-12.446V88.06L106.61,75.614v-8.297l37.651,17.221V91.738z
					"/>
			</g>
		</g>
	</g>
</g>
</svg>
