<?xml version="1.0" encoding="utf-8"?>
<!-- Generator: Adobe Illustrator 15.0.0, SVG Export Plug-In . SVG Version: 6.00 Build 0)  -->
<!DOCTYPE svg PUBLIC "-//W3C//DTD SVG 1.1//EN" "http://www.w3.org/Graphics/SVG/1.1/DTD/svg11.dtd">
<svg version="1.1" id="Layer_1" xmlns="http://www.w3.org/2000/svg" xmlns:xlink="http://www.w3.org/1999/xlink" x="0px" y="0px"
	 width="171.956px" height="66.07px" viewBox="0 0 171.956 66.07" enable-background="new 0 0 171.956 66.07" xml:space="preserve">
<g>
	<path fill-rule="evenodd" clip-rule="evenodd" fill="#D6D6D6" d="M129.033,27.107c0.518,0.56,1.294,0.344,1.882,0.558
		c1.3,0.474,1.92,1.648,2.506,2.925c1.309-0.307,1.743-1.403,2.924-1.811c0.417-0.144,0.964-0.085,1.464-0.278
		c0.89-0.345,1.581-1.9,2.157-2.855c1.907-3.149,3.3-6.671,5.016-9.888c1.07-2.007,2.326-4.141,3.83-6.129
		c0.636-0.842,1.547-1.867,2.229-2.786c0.132-0.179,0.635-1.032,1.044-1.463c0.546-0.573,1.425-0.354,1.601,0
		c0.334,0.658-0.78,2.095-1.184,2.855c-2.385,4.506-4.297,9.641-5.64,15.042c-0.249,1.004-0.528,2.126-0.767,3.414
		c-0.254,1.379-0.53,3.27,0.139,4.039c1.2,1.376,4.846,0.457,6.477-0.07c4.227-1.364,7.125-3.071,10.935-4.805
		c0.887-0.405,1.854-0.776,2.785-1.185c0.823-0.361,1.813-1.14,2.786-0.696c-0.087,0.969-1.177,1.193-1.88,1.532
		c-3.695,1.778-7.533,3.732-11.491,5.363c-0.722,0.298-1.564,0.692-2.438,0.976c-1.647,0.533-2.646,0.722-4.18,0.764
		c-2.372,0.068-4.142-0.257-4.804-1.879c-0.525-1.282-0.062-3.426,0.278-4.875c1.044-4.454,2.636-9.004,4.038-12.745
		c-0.111-0.834-1.108,0.647-1.53,1.393c-1.987,3.503-3.396,7.314-5.294,10.794c-0.727,1.335-1.533,3.034-2.366,4.039
		c-0.339,0.407-0.927,0.995-1.323,1.115c-0.394,0.117-0.909-0.099-1.462,0c-1.535,0.27-2.327,2.859-4.182,2.157
		c-1.036-0.392-0.482-2.117-1.182-3.063c-0.525-0.712-2.158-0.821-3.064-0.418c-0.737,0.329-1.743,2.875-2.158,3.692
		c-0.646,1.265-1.329,2.816-1.95,3.899c-1.616,2.808-2.887,4.951-4.458,7.242c-2.412,3.518-5.018,6.551-8.007,9.541
		c-0.974,0.971-2.038,2.053-3.204,2.645c-3.274,1.666-5.562-0.372-5.153-4.316c0.223-2.159,1.488-4.378,2.576-6.129
		c2.305-3.709,4.883-6.556,8.078-9.329c0.698-0.606,1.538-1.281,2.368-2.022c0.768-0.682,1.854-1.44,2.158-2.158
		c0.313-0.739,0.357-1.691,0.557-2.506c0.573-2.335,1.364-4.665,2.229-6.895c1.058-2.726,2.156-5.783,3.482-8.635
		c0.585-1.256,1.407-2.652,2.09-4.04c1.407-2.862,2.646-4.904,4.734-7.382c0.838-0.992,1.958-2.763,3.413-2.646
		c2.442,0.195,1.112,4.867,0.627,6.616c-1.692,6.1-3.248,11.551-5.503,17.131C129.78,24.914,129.126,25.937,129.033,27.107z
		 M133.421,2.942c-1.652,1.634-3.03,3.736-4.317,5.85c-3.222,5.284-5.529,11.414-7.592,17.827c-0.43,1.339-1.086,2.646-0.975,4.04
		c0.653,0.144,1.066-0.414,1.532-0.697c0.488-0.295,1.042-0.512,1.602-0.765c0.896-0.408,2.528-0.865,3.273-1.463
		c0.634-0.51,1.007-1.928,1.393-2.855c2.575-6.2,4.81-12.502,6.407-19.43c0.252-1.094,0.842-2.596,0.139-3.482
		c-0.004-0.042-0.01-0.082-0.068-0.069C134.338,2.136,133.777,2.589,133.421,2.942z M125.064,30.24
		c-1.24,0.538-3.481,1.565-4.248,2.508c-0.385,0.468-0.398,1.163-0.906,1.462c-0.254,0.149-0.862,0.125-1.253,0.279
		c-0.684,0.266-1.508,1.216-2.229,1.809c-3.651,3.007-7.127,6.665-9.541,10.794c-0.964,1.648-2.146,3.624-2.158,5.991
		c-0.023,4.078,3.415,1.771,4.806,0.555c1.127-0.986,2.16-1.943,2.923-2.783c3.811-4.197,6.748-8.204,9.682-13.096
		c1.085-1.807,1.926-3.774,2.925-5.638c0.311-0.584,0.95-1.209,0.627-1.95C125.362,30.159,125.213,30.175,125.064,30.24z"/>
	<path fill-rule="evenodd" clip-rule="evenodd" fill="#D6D6D6" d="M72.486,60.951c0-0.604,0-1.207,0-1.812
		c1.94-8.751,6.34-14.934,11.979-20.056c0.8-0.729,1.989-1.671,2.228-2.367c0.242-0.708,0.217-1.668,0.349-2.438
		c0.944-5.552,2.66-10.777,4.805-15.111c1.792-3.624,3.923-7.439,6.547-10.446c0.821-0.942,2.061-2.381,3.412-2.298
		c1.537,0.094,1.932,1.739,1.949,3.204c0.024,2.075-0.467,4.062-0.836,6.059c-0.891,4.828-2.447,9.117-3.968,13.3
		c-0.268,0.731-0.977,2.067-0.837,2.647c0.105,0.435,1.035,0.797,1.602,0.835c0.99,0.068,1.954-0.521,2.995-0.625
		c0.894-0.094,1.834,0.308,2.646,0.277c1.972-0.077,3.386-2.06,5.294-1.462c0,0.87-1.092,1.12-1.812,1.531
		c-0.752,0.433-1.436,1.08-2.228,1.324c-1.092,0.338-2.007-0.153-3.135-0.139c-1.11,0.013-2.246,0.721-3.411,0.697
		c-0.893-0.021-1.563-0.732-2.438-0.558c-0.834,0.165-1.641,2.936-2.158,4.107c-1.979,4.479-4.115,8.664-6.336,12.536
		c-1.484,2.586-3.171,5.244-4.876,7.729c-1.743,2.543-3.621,5.17-5.987,6.615c-0.555,0.339-1.347,0.705-2.022,0.768
		C73.438,65.522,72.961,63.252,72.486,60.951z M101.386,8.165c-2.101,1.024-3.799,3.686-5.085,5.71
		c-1.335,2.103-2.43,4.066-3.549,6.336c-1.725,3.49-2.776,7.015-3.832,11.003c-0.352,1.319-0.754,2.762-0.557,4.108
		c0.738-0.065,1.324-0.554,1.881-0.906c1.198-0.753,2.397-1.463,3.898-1.948c0.727-0.235,1.769-0.298,2.229-0.697
		c0.456-0.397,0.896-1.819,1.184-2.576c2.105-5.566,4.233-11.239,4.943-17.898c0.114-1.08,0.383-2.344-0.277-3.273
		C101.877,7.935,101.509,8.105,101.386,8.165z M94.562,34c-2.735,0.958-5.198,2.676-7.312,4.526
		c-4.248,3.717-7.737,7.819-10.655,13.022c-0.702,1.254-1.268,2.551-1.812,4.109c-0.51,1.468-1.089,3.249-1.045,4.875
		c0.038,1.346,0.604,3.319,1.533,3.552c1.49,0.371,3.201-1.376,4.039-2.228c3.143-3.212,5.714-7.247,7.868-11.003
		c2.634-4.59,5.353-9.511,7.452-14.484c0.311-0.736,0.729-1.535,0.697-2.37C95.032,33.854,94.731,33.942,94.562,34z"/>
</g>
<g>
	<path fill="#FFFFFF" d="M44.487,24.74L58.677,6.422H37.478l-6.394,8.252C37.145,15.368,42.214,19.323,44.487,24.74z"/>
	<path fill="#FFFFFF" d="M13.704,37.115L0,54.808h21.197l5.606-7.238C20.792,46.705,15.825,42.618,13.704,37.115z"/>
	<path fill="#FFFFFF" d="M77.265,55.71V0L63.151,16.252V35.41c3.885,0.035,7.022,3.193,7.022,7.088c0,3.915-3.176,7.089-7.092,7.089
		c-3.914,0-7.088-3.174-7.088-7.089c0-1.896,0.746-3.617,1.957-4.891L50.7,30.811l-5.732,6.117l-2.541-3.262
		c0.169-0.857,0.259-1.743,0.259-2.649c0-7.308-5.736-13.272-12.952-13.642L21.197,6.422H0L15.986,26.94
		c-0.402,1.288-0.62,2.658-0.62,4.078c0,7.544,6.116,13.66,13.66,13.66c0.257,0,0.511-0.01,0.765-0.021l16.647,21.364h21.196
		l-0.012-0.016l9.642-10.281l0,0l0.006-0.008L77.265,55.71z"/>
</g>
</svg>
